<svg width="44" height="44" viewBox="0 0 44 44" fill="none" xmlns="http://www.w3.org/2000/svg">
<path d="M26.358 34H21.991L12.991 29.04L2 33.082L5.002 39.026L12.074 36.073C18.691 40.024 22.718 42 24.156 42C25.594 42 31.539 39.333 41.991 34" stroke="#FF8717" stroke-width="4" stroke-linecap="round" stroke-linejoin="round"/>
<path d="M26.983 24.988V20.318C28.083 19.861 29.526 19.193 30.355 18.364C31.6137 17.1054 32.4708 15.5017 32.8181 13.7559C33.1653 12.0101 32.9871 10.2005 32.3059 8.55595C31.6247 6.91142 30.4712 5.50582 28.9911 4.51689C27.5111 3.52796 25.771 3.00012 23.991 3.00012C22.211 3.00012 20.4709 3.52796 18.9909 4.51689C17.5108 5.50582 16.3573 6.91142 15.6761 8.55595C14.9949 10.2005 14.8167 12.0101 15.1639 13.7559C15.5112 15.5017 16.3683 17.1054 17.627 18.364C18.456 19.193 19.891 19.861 20.991 20.317C20.997 20.652 20.997 22.209 20.991 24.987H26.983V24.988Z" stroke="#FF8717" stroke-width="4" stroke-linejoin="round"/>
<path d="M9.991 19L10.991 18" stroke="#FF8717" stroke-width="4" stroke-linecap="round"/>
<path d="M37.991 19L36.991 18" stroke="#FF8717" stroke-width="4" stroke-linecap="round"/>
<path d="M12.991 3L11.991 2" stroke="#FF8717" stroke-width="4" stroke-linecap="round"/>
<path d="M34.991 3L35.991 2" stroke="#FF8717" stroke-width="4" stroke-linecap="round"/>
<path d="M38.991 10H37.991" stroke="#FF8717" stroke-width="4" stroke-linecap="round"/>
<path d="M9.991 10H8.991" stroke="#FF8717" stroke-width="4" stroke-linecap="round"/>
</svg>
