<svg width="38" height="44" viewBox="0 0 38 44" fill="none" xmlns="http://www.w3.org/2000/svg">
<path d="M4 34V42H36V2H4V10" stroke="#1782FF" stroke-width="4" stroke-linecap="round" stroke-linejoin="round"/>
<path d="M2 28H6" stroke="#1782FF" stroke-width="4" stroke-linecap="round" stroke-linejoin="round"/>
<path d="M2 22H6" stroke="#1782FF" stroke-width="4" stroke-linecap="round" stroke-linejoin="round"/>
<path d="M2 16H6" stroke="#1782FF" stroke-width="4" stroke-linecap="round" stroke-linejoin="round"/>
<path d="M20 19C22.2091 19 24 17.2091 24 15C24 12.7909 22.2091 11 20 11C17.7909 11 16 12.7909 16 15C16 17.2091 17.7909 19 20 19Z" stroke="#1782FF" stroke-width="4" stroke-linecap="round" stroke-linejoin="round"/>
<path d="M28 33C28 30.8783 27.1571 28.8434 25.6569 27.3431C24.1566 25.8429 22.1217 25 20 25C17.8783 25 15.8434 25.8429 14.3431 27.3431C12.8429 28.8434 12 30.8783 12 33" stroke="#1782FF" stroke-width="4" stroke-linecap="round" stroke-linejoin="round"/>
</svg>
